<?xml version="1.0" encoding="UTF-8"?><svg id="a" xmlns="http://www.w3.org/2000/svg" xmlns:xlink="http://www.w3.org/1999/xlink" viewBox="0 0 3587.69 3143.8"><defs><style>.d{fill:#fdcdaf;}.e{fill:#80736a;}.f{fill:#545959;}.g{fill:#282b27;}.h{fill:#1f120c;}.i{fill:#b15ea5;stroke:#fee;stroke-miterlimit:10;}.j{fill:#4e4534;}.k{fill:#232828;}.l{fill:#acabab;}.m{clip-path:url(#c);}.n{fill:#c4c1bb;}.o{fill:none;}.p{fill:#8b7f70;}.q{fill:#abaaaa;}.r{fill:#010101;}</style><clipPath id="c"><circle class="o" cx="2904.83" cy="682.86" r="682.36"/></clipPath></defs><rect id="b" class="o" y="1143.8" width="2000" height="2000"/><circle class="i" cx="2904.83" cy="682.86" r="682.36"/><g class="m"><g><path class="n" d="M3151.95,1365.23h-508.01c-.04-.91,.33-1.61,1.1-2.11,2.95-1.51,6.15-1.2,9.29-1.2,162.42-.02,324.83-.02,487.25,0,3.13,0,6.34-.32,9.29,1.19,.77,.5,1.13,1.21,1.09,2.12Z"/><path class="n" d="M2491.03,1365.23c.03-6.77-1.06-13.61,1.12-20.27,3.09,3.35,1.59,7.52,1.98,11.34,.3,2.94,.05,6.18,4.56,5.74,43.51-.24,87-.07,130.5-.09,2.51,0,5.06-.08,7.39,1.18,.77,.49,1.12,1.19,1.05,2.1h-146.59Z"/><path class="n" d="M3318.65,1363.8c.04,.48,.07,.95,.11,1.43h-161.76c-.07-.91,.29-1.61,1.06-2.09,2.32-1.26,4.86-1.19,7.38-1.19,48.49-.03,96.98-.05,145.46,0,1.05,0,2.1,.05,3.14,.22,1.69,.12,3.32,.4,4.61,1.64Z"/><path class="l" d="M2637.62,1365.23c0-.33,.02-.65,.03-.98,.13-.24,.26-.49,.39-.73,1.53-.98,3.15-.92,4.82-.43,.52,.24,.87,.65,1.06,1.19,.02,.31,.03,.63,.03,.94h-6.32Z"/><path class="q" d="M3156.98,1364.28c.02,.31,.02,.63,.03,.94h-5.05c0-.31,0-.61,.02-.92,.09-.24,.19-.49,.28-.73,1.18-.82,2.45-.83,3.77-.43,.5,.23,.81,.62,.96,1.14Z"/><path class="r" d="M3318.65,1363.8l-3.64,.04c-3.08-7.12-2.39-14.8-2.91-22.23-.62-8.8-.18-17.68-.14-26.52,.1-26.93-1.75-53.77-3.57-80.63-3.22-47.44-9.05-94.61-13.82-141.89-.93-9.2-1-18.5-1.26-27.71-.65-23.38-3.12-46.58-5.62-69.77-2.86-26.56-5.15-53.2-9.84-79.54-5.32-29.91-12.27-59.38-23.76-87.61-10.28-25.25-26.48-45.8-49.03-61.17-23.96-16.34-49.89-28.66-77.13-38.66-23.8-8.74-48.86-12.82-72.72-21.15-4.19-1.46-5.55,.84-7.07,3.98-6.7,13.92-14.05,27.69-26.05,37.67-26.91,22.4-56.54,39.32-93.04,38.18-18.63-.58-36.6-5.74-53.94-12.44-23.03-8.89-45.63-18.62-63.62-36.49-9.64-9.58-17.82-20.16-24.53-31.92-1.49-2.62-2.27-5.48-.56-8.4,.88-1.27,2.53-1.67,3.42-2.95-.93,.94-2.17,1.43-3.25,2.16-15.41,6.26-31.58,10.69-46.46,18.14-33.68,16.86-68.44,31.46-101.31,50.07-39.31,22.25-64.15,55.51-78.72,97.39-9.31,26.77-14.29,54.5-18.74,82.4-6.43,40.32-12.37,80.73-19.61,120.93-3.23,17.96-3.09,36.45-5.97,54.54-6.4,40.13-8.61,80.71-13.01,121.05-3.67,33.59-1.86,67.28-2.45,100.93-.13,7.26,.04,14.67-3.05,21.57-5.29,.13-5.23,.13-5.25-4.53-.02-4.77,.73-9.53,.12-14.3,.69-17.04,1.1-34.09,.89-51.15-.34-27,1.99-53.81,5.14-80.6,2.56-21.73,4.11-43.58,6.55-65.33,2.03-18.18,4.76-36.29,7.04-54.45,1.05-8.35,1.64-16.75,2.66-25.1,2.51-20.47,6.81-40.65,9.8-61.05,3.79-25.81,7.94-51.55,12.31-77.26,5.06-29.72,11.92-58.92,24.16-86.64,15.77-35.71,39.43-64.33,73.89-83.59,15.24-8.51,30.44-17.03,46.38-24.19,10.73-4.82,21.39-9.83,31.89-15.13,25.99-13.11,53.12-23.22,81.12-30.95,7.41-2.05,12.07-6.08,15.39-12.6,4.01-7.86,5.6-16.23,6.09-24.92,.76-13.32-1.11-26.43-2.7-39.6-1.13-9.29-4.72-17.83-6.96-26.76-3.28-13.09-4.72-26.49-6.46-39.83-.43-3.3-1.3-4.38-4.99-4.47-8.87-.21-15.38-5.07-19.96-12.47-2.67-4.32-4.12-9.19-5.35-14.1-3.09-12.24-5.78-24.55-7.08-37.13-.3-2.91-.44-5.91-.1-8.81,1.08-9.13,4.73-14.21,13.42-19.28-4.67-10.76-9.37-21.53-14.02-32.32-6.97-16.13-9.82-32.97-8.57-50.51,.51-7.16,1.98-14.16,3.91-21.04,3.58-12.74,7.68-25.35,10.92-38.17,3.91-15.49,13.39-25.33,28.34-30.26,18.76-6.19,37.33-12.91,55-21.83,10.93-5.52,22.34-9.58,34.1-12.93,13.07-3.73,25.74-3.31,38.29,1.8,5.45,2.22,10.96,4.28,16.31,6.72,13.95,6.36,28.72,9.35,43.83,11.05,6.48,.73,12.95,1.45,19.18,3.6,9.55,3.3,16.94,9.14,21.85,18.04,2.23,4.05,4.48,8.09,6.76,12.12,2.96,5.22,6.89,9.55,12.08,12.63,18.44,10.95,25.93,27.74,26.52,48.56,.59,20.81-4.06,40.47-12.03,59.49-4.46,10.66-9.59,20.99-16.24,30.52,11.16,5.49,14.73,15.5,15.32,26.2,1.11,20.06-3.76,38.8-15.76,55.3-2.74,3.77-6.1,6.96-9.9,9.67-4.58,3.26-9.46,4.44-14.91,2.27-1.56,.71-1.57,2.29-1.91,3.68-.4,1.63-.63,3.32-1.2,4.89-5.66,15.7-6.01,32.08-6.39,48.48-.38,16.62-.99,33.24-1.45,49.86-.25,9.02,2.12,17.52,5.74,25.65,5.22,11.7,14.49,19.06,26.58,22.49,18.17,5.17,36.19,10.76,54.57,15.34,39.96,9.97,77.9,25.23,112.53,48.01,27.9,18.36,47.07,43.41,58.27,74.79,10.93,30.6,18.47,62.03,22.96,94.17,5.59,40.01,9.87,80.17,12.93,120.45,1.26,16.57,1.73,33.19,3.09,49.76,1.65,20.14,4.02,40.2,5.82,60.32,1.68,18.65,4.05,37.23,5.61,55.89,3.84,45.97,5.73,92.02,5.42,138.16-.03,3.79-.12,7.58-.19,11.37Z"/><path class="j" d="M2497.27,1363.79c2.22-27.09,1.27-54.23,1.38-81.35,.07-17.86,1.56-35.62,3.55-53.36,1.17-10.42,1.67-20.91,2.89-31.32,1.22-10.41,1.6-20.89,3.31-31.26,.85-5.16,.98-10.46,1.31-15.66,.71-11.15,3.51-21.94,4.65-33,.9-8.75,2.55-17.45,3.05-26.22,1.02-17.63,3.59-34.99,6.97-52.3,2.84-14.59,5.38-29.25,7.32-44.02,2.27-17.23,5.57-34.33,8.1-51.53,2.22-15.15,4.75-30.24,8.17-45.16,5.31-23.21,12.18-45.9,23.56-66.97,8.73-16.17,19.02-31.25,32.61-43.81,10.23-9.46,21.81-17.08,33.76-24.19,20.45-12.18,41.92-22.33,63.61-32.05,8.25-3.7,16.24-7.97,24.33-12.03,18.64-9.36,38.21-16.41,57.88-23.2,1.41-.49,2.79-.92,4.29-.87,.39,.28,.52,.56,.38,.83-.13,.27-.27,.41-.4,.41-2.11,3.12-1.08,6.05,.63,8.86,4.69,7.73,9.72,15.23,15.67,22.08,15.78,18.18,35.41,30.56,57.6,39.57,16.8,6.83,33.87,12.28,51.64,15.95,19.4,4.01,38.08,1.91,56.26-5,15.98-6.08,30.67-14.74,44.42-24.92,9.97-7.38,17.55-16.88,23.92-27.37,3.92-6.46,7.98-12.91,10.17-20.22,.72-2.41,1.79-2.24,3.67-1.63,7.99,2.61,15.85,5.97,24.05,7.46,19.97,3.63,38.97,10.38,57.95,17.1,28.49,10.09,55.34,23.65,79.4,42.07,20.15,15.43,34.28,35.57,43.48,59.23,9.85,25.34,16.52,51.55,21.44,78.23,3.5,18.97,5.98,38.08,7.79,57.3,1.24,13.14,3.31,26.19,4.67,39.32,1.18,11.47,1.78,23.01,2.82,34.49,1.55,17.16,1.83,34.37,2.65,51.56,.47,9.81,2.23,19.55,3.28,29.33,1.04,9.8,1.86,19.63,2.87,29.43,1.05,10.21,2.19,20.42,3.35,30.62,.57,5,1.09,10.04,1.41,15.02,.81,12.78,2.35,25.49,3.06,38.28,.87,15.72,1.63,31.45,2.63,47.15,.8,12.62,.91,25.21,.89,37.81-.02,15.15,.7,30.26,1.32,45.38-44.29,.04-88.58,.06-132.87,.13-8.39,.01-16.78,.2-25.16,.31l.04-.54c-2.81-5.3-.54-10.73-.19-16.03,1.17-18.09,.94-36.13,.05-54.23-.8-16.35-2.44-32.62-1.06-49.14,1.38-16.51,.99-33.19-.25-49.82-1.73-23-.28-46,4.66-68.44,7.99-36.29,11.4-73.17,16-109.91,1.12-8.97,.68-18.06,1.13-27.09,.75-15.13,2.04-30.2,3.06-45.31-5.1,45.26-6.62,90.86-12.88,136.01-2.26,16.29-6.47,32.19-9.52,48.32-2.63,13.89-4.28,27.83-4.17,42.01,.2,24.63,.68,49.28-.12,73.89-.82,25.07,1.63,49.95,2.38,74.93,.41,13.82-.86,27.72-2.53,41.52-.15,1.28-.7,2.42-1.64,3.34l.04,.53c-2.52-.12-5.03-.33-7.55-.33-164.32-.02-328.64-.02-492.96,0-2.52,0-5.03,.2-7.55,.31l.04-.54c-1.87-2.27-1-4.83-.66-7.28,6.24-44.81,12.81-89.65,15.8-134.77,2.11-31.96,7.02-63.57,9.23-95.45,1.44-20.85-.57-41.62-2.86-62.35-3.78-34.27-8.69-68.39-13.67-102.5,5.3,37.67,9.67,75.46,13.93,113.26,3.59,31.88,1.01,63.44-3.88,94.94-2.88,18.54-3.45,37.26-4.7,55.93-1.16,17.44-3.68,34.74-6.11,52.03-3.66,26.05-5.51,52.33-10.09,78.27-.51,2.9-.54,5.94-3.33,7.85l.02,.56c-2.51-.1-5.02-.27-7.53-.28-41.98-.02-83.95,0-125.93-.02-2.31,0-4.61-.11-6.92-.17Z"/><path class="r" d="M2637.62,1363.69c1.68-10.76,3.45-21.52,5-32.3,1.88-13.07,2.76-26.26,4.72-39.33,1.71-11.4,2.8-22.89,4.22-34.34,1.08-8.73,2.37-17.45,3.34-26.19,.86-7.72,1.03-15.53,1.33-23.26,.61-15.99,2.8-31.74,5.01-47.53,3.24-23.12,5.73-46.37,3.88-69.72-1.16-14.61-2.5-29.23-4.52-43.78-2.2-15.78-3.54-31.67-5.45-47.49-1.36-11.23-3.17-22.41-4.5-33.64-.46-3.91-.07-7.91-.07-12.51,3.21,3.07,2.75,6.87,3.27,10.07,2.7,16.76,5.18,33.55,7.5,50.37,1.58,11.42,2.55,22.93,4.21,34.34,2.18,14.96,3.48,30.01,4.54,45.05,.9,12.74,.95,25.6-.52,38.43-1.08,9.37-1.74,18.8-2.9,28.17-1.09,8.74-2.32,17.46-3.26,26.21-.76,7.09-1.56,14.21-1.66,21.33-.22,14.94-1.92,29.72-3.61,44.53-1.33,11.67-2.43,23.36-4.11,34.99-2.82,19.51-4.13,39.19-7.28,58.66-.97,5.99-1.99,11.99-2.82,18.01-2.11,.32-4.22,.35-6.33-.06Z"/><path class="r" d="M3151.94,1363.78c.76-11.93,1.56-23.86,2.25-35.79,.2-3.36,.31-6.75,.06-10.09-1.1-15.07-1.5-30.2-2.65-45.25-.58-7.62,.21-15.05,.22-22.57,.04-26.1,.2-52.2-.07-78.29-.18-17.33,2.25-34.3,5.68-51.19,2.67-13.14,5.7-26.23,7.92-39.44,1.56-9.28,1.97-18.76,3.01-28.14,.97-8.75,2.13-17.47,3.12-26.22,.71-6.25,1.82-12.51,1.79-18.76-.07-11.58,.96-23.1,1.64-34.62,.62-10.44,2.35-20.82,3.88-31.18,.33-2.21,.48-5.07,3.39-6.35,0,4.97,.56,9.72-.1,14.29-2.14,14.78-1.84,29.72-3.33,44.54-.4,3.96-.19,7.99-.21,11.99-.06,11.16-1.85,22.13-3.34,33.14-1.13,8.31-2.3,16.63-2.84,24.98-.98,14.92-3.93,29.5-6.85,44.09-3.37,16.86-6.54,33.69-7.61,50.95-.67,10.73-1.32,21.48-.54,32.11,1.15,15.57,.53,31.1,.89,46.65,.11,4.67-1.01,9.18-1.12,13.8-.34,14.72,1.38,29.34,2,44.01,.73,17.19,1.4,34.45-.56,51.67-.59,5.2-.9,10.44-1.57,15.65-1.69,.01-3.39,.03-5.08,.04Z"/><path class="d" d="M3016.35,456.19c-.22,23.99-1.01,47.96-3.3,71.85-1.59,16.66-6.66,32.49-12.1,48.19-2.82,8.14-5.84,16.23-9.61,23.99-13.61,28-35.3,45.4-66.26,50.96-23.25,4.18-45.18,1.08-65.86-10.53-6.8-3.82-13.37-7.94-19.66-12.57-17.29-12.7-27.83-29.42-31.27-50.71-4.8-29.7-9.97-59.36-10.93-89.51-.94-29.63,2.32-58.71,10.76-87.29,5.68-19.24,17.58-30.38,37.28-33.77,21.78-3.75,43.56-7.24,65.73-7.81,12.22-.31,24.17-3.14,36.19-5.21,9.14-1.58,18.31-2.31,27.63-.99,15.15,2.16,25.66,10.05,30.98,24.38,4.19,11.27,6.85,22.96,8.28,34.91,1.75,14.65,2.47,29.35,2.14,44.11Z"/><path class="h" d="M3019.46,478.41c-.33-8.82,1.86-17.53,1.06-26.37-1.14-12.72-1.24-25.5-2.28-38.24-1.08-13.3-3.95-26.08-8.25-38.58-4.64-13.49-14.13-22.23-27.92-25.76-9.65-2.47-19.56-2.17-29.36-.49-12.16,2.08-24.25,4.52-36.44,6.39-4.53,.69-9.26,.45-13.87,.19-11.61-.65-23.02,1.27-34.41,2.86-9.09,1.27-18.24,2.42-27.16,4.79-5.3,1.41-10.31,3.56-15.26,5.86-8.31,3.87-13.41,10.93-16.87,18.86-6.04,13.88-9.42,28.59-11.97,43.52-2.65,15.54-3.74,31.17-3.7,46.91,0,.77,.23,1.61-.82,2.62-2.6-3.94-3.67-8.48-5.11-12.65-6.13-17.7-14.39-34.47-21.68-51.66-7.09-16.72-10.3-34.13-8.88-52.23,.6-7.73,2.98-15.19,5.13-22.63,3.67-12.69,7.7-25.28,11.25-38,3.05-10.95,10.7-17.38,20.61-21.36,10.32-4.14,20.93-7.54,31.35-11.43,8.66-3.23,17.19-6.79,25.42-11.01,13.71-7.03,28.08-12.37,43.24-15.07,9.39-1.67,18.8-.86,27.81,2.96,10.43,4.43,20.76,9.15,31.59,12.55,9.21,2.9,18.7,4.4,28.29,5.54,8.48,1.01,17.05,1.83,24.91,5.92,6.95,3.62,12.3,8.58,15.74,15.64,1.47,3.02,3.18,5.93,4.67,8.95,4.36,8.89,12.32,14.1,19.97,19.65,10.61,7.71,16.3,18.25,18.33,31.09,.76,4.79,1.18,9.54,1.2,14.38,.09,18.8-4.91,36.4-12.08,53.57-5.04,12.06-11.74,23.12-18.58,34.24-5.66,9.2-11.59,18.51-15.03,28.97l-.43,.41-.46-.38Z"/><path class="d" d="M2818.19,613.53c16.73,20.26,37.96,33.67,63.15,40.62,22.3,6.15,44.3,3.4,65.65-4.47,14.55-5.37,26.07-15.17,35.61-27.33,8.4-10.71,14.09-22.87,19-35.45,3.12,.31,1.48,2.37,1.42,3.85-.77,18.29-1.69,36.58-2.24,54.89-.34,11.1,1.92,21.78,7.07,31.7,5.06,9.75,12.95,16.43,23.01,20.64,1.16,.49,2.36,.88,3.55,1.3,10.67,3.74,10.58,3.69,5.31,14.12-10.06,19.93-24.55,35.52-44.3,46.17-11.48,6.19-22.79,12.67-35.36,16.53-18.52,5.7-36.87,4.3-55.45-.11-20.61-4.89-40.21-12.45-59.05-21.77-22.43-11.1-39.67-28.19-52.52-49.65-2.79-4.66-2.76-4.85,2.06-7.63,15-8.62,21.73-22.04,23.53-38.78,1.53-14.19-.18-28.14-1.76-42.15-.34-1.23-1.14-2.71,1.3-2.49Z"/><path class="d" d="M3052.26,480.45c-.28,11.87-2.54,23.32-7.58,34.13-3.7,7.94-8.83,14.75-16.28,19.6-2.5,1.63-5.11,2.96-8.24,2.45-2.32-.38-4.02-1.43-3.52-4.18,2.5-13.65,.24-27.69,3.77-41.3,3.42-13.18,9.24-25.14,16.62-36.47,1.52-2.33,3.27-2.32,5.32-1,2.56,1.64,4.21,4.11,5.64,6.68,3.46,6.24,4.61,13,4.27,20.08Z"/><path class="d" d="M2765.24,473.77c-.14-3.64,.37-7.18,1.43-10.61,1.01-3.27,2.73-6.14,5.54-8.23,3.69-2.75,4.62-2.6,6.28,1.63,4.85,12.3,9.59,24.65,14.33,36.99,.76,1.97,1.06,4.03,1.15,6.16,.45,11.56,1.9,23.02,3.56,34.46,.53,3.66,.16,4.14-3.47,3.74-6.15-.67-11.12-3.54-14.94-8.4-1.7-2.17-3.02-4.57-3.91-7.16-5.41-15.77-8.27-32.07-9.97-48.59Z"/><path class="e" d="M3003.04,590.75c-.81-1.16,.34-3.04-1.42-3.85-.07-1.76,.57-3.13,2.18-4.21,.54,2.9,.61,5.55-.76,8.07Z"/><path class="g" d="M2787.98,696.73c0-.41,0-.82,.02-1.23,.98-1.32,2.27-2.06,4.5-2.19-.88,2.4-3.06,2.48-4.52,3.42Z"/><path class="p" d="M2818.19,613.53c-1.09,.48-.8,1.69-1.3,2.49-.34-.72-.86-1.41-.98-2.16-.14-.84-.79-2.23,.56-2.43,1.06-.16,1.47,1.12,1.72,2.11Z"/><path class="f" d="M3019.46,478.41c.3-.06,.59-.07,.89-.03-.11,.62,.57,1.54-.66,1.74l-.24-1.71Z"/><path class="k" d="M2793.42,483.67c-.01,.14,.03,.35-.05,.4-.13,.09-.36,.16-.48,.11-.52-.24-.49-.52,.06-.67,.13-.04,.31,.1,.47,.16Z"/></g></g></svg>